<?xml version="1.0" encoding="iso-8859-1"?>
<!-- Uploaded to: SVG Repo, www.svgrepo.com, Generator: SVG Repo Mixer Tools -->
<!DOCTYPE svg PUBLIC "-//W3C//DTD SVG 1.1//EN" "http://www.w3.org/Graphics/SVG/1.1/DTD/svg11.dtd">
<svg fill="#000000" version="1.1" id="Capa_1" xmlns="http://www.w3.org/2000/svg" xmlns:xlink="http://www.w3.org/1999/xlink" 
	 width="800px" height="800px" viewBox="0 0 364.912 364.911"
	 xml:space="preserve">
<g>
	<g>
		<path d="M174.208,297.974c-4.431,0-8.035,3.604-8.035,8.034v29.071c0,4.43,3.604,8.033,8.035,8.033
			c4.43,0,8.034-3.604,8.034-8.033v-29.071C182.242,301.578,178.638,297.974,174.208,297.974z M177.247,335.079
			c0,1.675-1.363,3.039-3.039,3.039s-3.04-1.364-3.04-3.039v-29.071c0-1.676,1.364-3.039,3.04-3.039s3.039,1.363,3.039,3.039
			V335.079z"/>
		<path d="M201.433,297.974c-4.432,0-8.033,3.604-8.033,8.034v29.071c0,4.43,3.604,8.033,8.033,8.033s8.033-3.604,8.033-8.033
			v-29.071C209.466,301.578,205.863,297.974,201.433,297.974z M204.472,335.079c0,1.675-1.363,3.039-3.039,3.039
			s-3.039-1.364-3.039-3.039v-29.071c0-1.676,1.363-3.039,3.039-3.039s3.039,1.363,3.039,3.039V335.079z"/>
		<path d="M290.488,297.974c-4.432,0-8.033,3.604-8.033,8.034v29.071c0,4.43,3.604,8.033,8.033,8.033
			c4.432,0,8.035-3.604,8.035-8.033v-29.071C298.525,301.578,294.919,297.974,290.488,297.974z M293.529,335.079
			c0,1.675-1.363,3.039-3.041,3.039c-1.674,0-3.037-1.364-3.037-3.039v-29.071c0-1.676,1.363-3.039,3.037-3.039
			c1.678,0,3.041,1.363,3.041,3.039V335.079z"/>
		<path d="M317.712,297.974c-4.43,0-8.033,3.604-8.033,8.034v29.071c0,4.43,3.604,8.033,8.033,8.033s8.035-3.604,8.035-8.033
			v-29.071C325.748,301.578,322.144,297.974,317.712,297.974z M320.751,335.079c0,1.675-1.361,3.039-3.039,3.039
			c-1.676,0-3.039-1.364-3.039-3.039v-29.071c0-1.676,1.363-3.039,3.039-3.039c1.678,0,3.039,1.363,3.039,3.039V335.079z"/>
		<path d="M165.96,282.777h16.496c1.379,0,2.499-1.117,2.499-2.497v-36.915c0-1.381-1.119-2.497-2.499-2.497H165.96
			c-1.379,0-2.498,1.116-2.498,2.497v36.915C163.462,281.66,164.581,282.777,165.96,282.777z M168.457,245.863h11.501v31.919
			h-11.501V245.863z"/>
		<path d="M193.185,282.777h16.496c1.381,0,2.496-1.117,2.496-2.497v-36.915c0-1.381-1.115-2.497-2.496-2.497h-16.496
			c-1.379,0-2.498,1.116-2.498,2.497v36.915C190.687,281.66,191.806,282.777,193.185,282.777z M195.681,245.863h11.502v31.919
			h-11.502V245.863z"/>
		<path d="M282.24,282.777h16.496c1.381,0,2.498-1.117,2.498-2.497v-36.915c0-1.381-1.117-2.497-2.498-2.497H282.24
			c-1.379,0-2.498,1.116-2.498,2.497v36.915C279.742,281.66,280.861,282.777,282.24,282.777z M284.738,245.863h11.502v31.919
			h-11.502V245.863z"/>
		<path d="M309.464,282.777h16.498c1.379,0,2.496-1.117,2.496-2.497v-36.915c0-1.381-1.117-2.497-2.496-2.497h-16.498
			c-1.379,0-2.498,1.116-2.498,2.497v36.915C306.966,281.66,308.085,282.777,309.464,282.777z M311.962,245.863h11.502v31.919
			h-11.502V245.863z"/>
		<path d="M347.013,207.645h-18.627c-1.717-32.422-36.695-58.521-79.928-59.494v-23.767c0-1.379-1.119-2.498-2.498-2.498
			s-2.498,1.119-2.498,2.498v23.767c-43.232,0.972-78.21,27.071-79.927,59.494h-18.628c-1.379,0-2.498,1.117-2.498,2.498v8.306
			c0,1.38,1.118,2.497,2.498,2.497h4.77v53.146h-38.343l-1.843-58.517c3.865-1.912,6.536-5.887,6.536-10.482
			c0-4.633-2.713-8.634-6.628-10.527l-1.857-45.817c3.858-1.915,6.523-5.885,6.523-10.477c0-4.643-2.725-8.649-6.652-10.539
			l-1.807-30.25c3.844-1.919,6.497-5.883,6.497-10.464c0-4.642-2.724-8.65-6.652-10.54l-1.807-30.249
			c3.844-1.92,6.497-5.883,6.497-10.464c0-6.452-5.249-11.701-11.701-11.701h-0.236c-1.021-5.393-5.276-9.648-10.67-10.67V2.498
			c0-1.38-1.118-2.498-2.498-2.498s-2.498,1.118-2.498,2.498v10.895c-5.393,1.022-9.649,5.277-10.67,10.67h-0.236
			c-6.452,0-11.7,5.249-11.7,11.701c0,4.582,2.653,8.544,6.497,10.464l-1.807,30.249c-3.928,1.89-6.652,5.897-6.652,10.54
			c0,4.582,2.653,8.545,6.497,10.464l-1.807,30.25c-3.928,1.89-6.652,5.896-6.652,10.539c0,4.591,2.665,8.562,6.523,10.477
			l-1.857,45.817c-3.915,1.895-6.628,5.896-6.628,10.527c0,4.596,2.67,8.57,6.535,10.482l-1.843,58.517h-40.84
			c-1.379,0-2.498,1.117-2.498,2.497v85.826c0,1.379,1.118,2.497,2.498,2.497h134.276h74.06c1.379,0,2.498-1.118,2.498-2.497v-92.4
			c0-9.5,7.729-17.229,17.229-17.229s17.229,7.729,17.229,17.229v92.4c0,1.379,1.117,2.497,2.496,2.497h74.062
			c1.379,0,2.496-1.118,2.496-2.497V220.943h4.77c1.381,0,2.498-1.116,2.498-2.496v-8.307
			C349.511,208.764,348.394,207.645,347.013,207.645z M245.96,153.115c41.598,0,75.646,24.239,77.43,54.529H168.531
			C170.313,177.354,204.363,153.115,245.96,153.115z M85.037,18.148c3.771,0,6.97,2.493,8.036,5.917H77.001
			C78.067,20.641,81.266,18.148,85.037,18.148z M71.633,29.06h26.808c3.698,0,6.706,3.008,6.706,6.706
			c0,3.698-3.008,6.706-6.706,6.706H71.633c-3.697,0-6.706-3.008-6.706-6.706C64.927,32.068,67.935,29.06,71.633,29.06z
			 M98.44,47.466h0.274l1.664,27.852H69.696l1.663-27.852h0.273H98.44z M69.671,80.312h30.731c3.697,0,6.706,3.008,6.706,6.705
			c0,3.698-3.009,6.706-6.706,6.706H69.671c-3.698,0-6.706-3.008-6.706-6.706C62.966,83.32,65.973,80.312,69.671,80.312z
			 M100.402,98.718h0.274l1.664,27.853H67.735l1.664-27.853h0.273H100.402z M67.709,131.564h34.655c3.698,0,6.706,3.008,6.706,6.706
			c0,3.697-3.008,6.705-6.706,6.705H67.709c-3.697,0-6.706-3.008-6.706-6.705C61.004,134.573,64.012,131.564,67.709,131.564z
			 M65.721,193.393l1.76-43.421h0.228h34.655h0.228l1.76,43.421h-0.026H65.747H65.721z M65.747,198.389h38.579
			c3.697,0,6.706,3.006,6.706,6.704c0,3.697-3.009,6.705-6.706,6.705H65.747c-3.698,0-6.706-3.008-6.706-6.705
			C59.042,201.395,62.05,198.389,65.747,198.389z M65.541,216.793h0.206h38.579h0.207l1.804,57.299h-42.6L65.541,216.793z
			 M20.396,279.087h40.763h47.755h0.017h40.747v80.83H20.396V279.087z M337.25,359.917h-69.064v-89.903
			c0-12.254-9.971-22.224-22.225-22.224s-22.225,9.97-22.225,22.224v89.903h-69.064v-83.328v-55.644H337.25V359.917z
			 M344.515,215.95h-4.768H152.175h-4.77v-3.312h18.555h160.002h18.553V215.95z"/>
		<path d="M115.704,297.16c-7.285,0-13.211,5.927-13.211,13.211v30.244c0,1.38,1.118,2.497,2.498,2.497h21.427
			c1.379,0,2.498-1.117,2.498-2.497v-30.244C128.915,303.087,122.989,297.16,115.704,297.16z M123.92,338.118h-16.432v-27.747
			c0-4.53,3.686-8.216,8.216-8.216c4.53,0,8.216,3.686,8.216,8.216V338.118L123.92,338.118z"/>
		<path d="M69.117,318.045H56.544c-1.379,0-2.498,1.118-2.498,2.498v20.072c0,1.38,1.118,2.497,2.498,2.497h12.573
			c1.379,0,2.498-1.117,2.498-2.497v-20.072C71.615,319.163,70.497,318.045,69.117,318.045z M66.62,338.118h-7.578V323.04h7.578
			V338.118z"/>
	</g>
</g>
</svg>